# xmcd
#
# Track frame offsets:
#	150
#	10671
#	19298
#	26675
#	38669
#	53247
#	66126
#	73949
#	85320
#	97494
#	110964
#	119699
#	131157
#	138901
#	151215
#	166474
#	177421
#	187723
#	203941
#	211171
#	216889
#	231557
#	241763
#	251649
#
# Disc length: 3423 seconds
#
# Revision: 0
# Processed by: cddbd v1.5.2PL0 Copyright (c) Steve Scherf et al.
# Submitted via: EZCDAudioConverter 1.3.4.1
#
DISCID=680d5d18
DTITLE=V/A - Inner City Beat
DYEAR=1900
DGENRE=
TTITLE0=Peter Reno And Barry Stoller - Sparks
TTITLE1=Syd Dale - Danger Musicians At Work
TTITLE2=Clive Hicks - Transit
TTITLE3=Norrie Paramor - Theme From New Scotland Yard
TTITLE4=Francis Coppieters - Funky Chimes
TTITLE5=Dave Richmond - Gotta Getaway
TTITLE6=Dave Richmond - Heavy Lead
TTITLE7=Reg Tilsley - Ode To A Stone
TTITLE8=Ernest Copley - Fuel Injection
TTITLE9=Brass Incorporated - On A Bicycle Made For Three
TTITLE10=Tilsley Orchestral - The Ratcatchers
TTITLE11=Ernest Copley - Dynamic Patterns
TTITLE12=David Lindup - Men Of Action
TTITLE13=Brass Incorporated - Come One, Come All
TTITLE14=Francis Coppieters - Cross Talk
TTITLE15=International Studio Orchestra - High Diplomacy
TTITLE16=Syd Dale - The Hell Raisers
TTITLE17=Johnny Pearson - Product Efficiency
TTITLE18=Johnny Hawksworth - Conveyor Belt
TTITLE19=International Studio Orchestra - Police Five
TTITLE20=Johnny Pearson - Grand Prix
TTITLE21=David Lindup - Superformance
TTITLE22=Ernest Copley - Crossflow
TTITLE23=Johnny Hawksworth - Workshop
EXTD=
EXTT0=
EXTT1=
EXTT2=
EXTT3=
EXTT4=
EXTT5=
EXTT6=
EXTT7=
EXTT8=
EXTT9=
EXTT10=
EXTT11=
EXTT12=
EXTT13=
EXTT14=
EXTT15=
EXTT16=
EXTT17=
EXTT18=
EXTT19=
EXTT20=
EXTT21=
EXTT22=
EXTT23=
PLAYORDER=
